The men who stare at goats (2009) [BDRip720p][Nautilus-BT]
Join www.nautilus-bt.org

[img]http://img211.imageshack.us/img211/9075/301ec1z.jpg[/img]

Link IMDb : http://www.imdb.com/title/tt1234548/

A reporter in Iraq might just have the story of a lifetime when he meets Lyn Cassady, a guy who claims to be a former member of the U.S. Army's New Earth Army, a unit that employs paranormal powers in their missions.


Italian title : L'uomo che fissa le capre
Original title : The men who stare at goats
Release date : 2009
Genre : Comedy
Country : USA
Written by : Peter Straughan
Bokk by : Jon Ronson
Directed by : Grant Heslov


Languages : Italian - English
Subtitle forced : Italian
Chapters : yes


General
Complete name                    : L'uomo che fissa le capre - The men who stare at goats (2009) [BDRip720p Ita-Eng] by Pitt@Sk8.mkv
Format                           : Matroska
File size                        : 4.38 GiB
Duration                         : 1h 34mn
Overall bit rate                 : 6 664 Kbps
Encoded date                     : UTC 2011-01-16 11:35:09
Writing application              : mkvmerge v4.0.0 ('The Stars were mine') built on Jun  6 2010 16:18:42
Writing library                  : libebml v1.0.0 + libmatroska v1.0.0

Video
ID                               : 1
Format                           : AVC
Format/Info                      : Advanced Video Codec
Format profile                   : High@L4.1
Format settings, CABAC           : Yes
Format settings, ReFrames        : 3 frames
Muxing mode                      : Container profile=Unknown@4.1
Codec ID                         : V_MPEG4/ISO/AVC
Duration                         : 1h 34mn
Bit rate mode                    : Variable
Bit rate                         : 4 622 Kbps
Maximum bit rate                 : 40.0 Mbps
Width                            : 1 280 pixels
Height                           : 544 pixels
Display aspect ratio             : 16:9
Frame rate                       : 23.976 fps
Color space                      : YUV
Chroma subsampling               : 4:2:0
Bit depth                        : 8 bits
Scan type                        : Progressive
Bits/(Pixel*Frame)               : 0.277
Stream size                      : 2.95 GiB (67%)
Title                            : BDRip720p by Pitt@Sk8
Writing library                  : x264 core 104 r1713 c276662
Encoding settings                : cabac=1 / ref=3 / deblock=1:0:0 / analyse=0x3:0x133 / me=hex / subme=7 / psy=1 / psy_rd=1.00:0.00 / mixed_ref=1 / me_range=16 / chroma_me=1 / trellis=1 / 8x8dct=1 / cqm=0 / deadzone=21,11 / fast_pskip=1 / chroma_qp_offset=-2 / threads=6 / sliced_threads=0 / slices=4 / nr=0 / decimate=1 / interlaced=0 / constrained_intra=0 / bframes=3 / b_pyramid=1 / b_adapt=1 / b_bias=0 / direct=1 / weightb=1 / open_gop=2 / weightp=2 / keyint=240 / keyint_min=23 / scenecut=40 / intra_refresh=0 / rc_lookahead=40 / rc=2pass / mbtree=1 / bitrate=4622 / ratetol=1.0 / qcomp=0.60 / qpmin=10 / qpmax=51 / qpstep=4 / cplxblur=20.0 / qblur=0.5 / vbv_maxrate=40000 / vbv_bufsize=40000 / ip_ratio=1.40 / aq=1:1.00 / nal_hrd=vbr

Audio #1
ID                               : 2
Format                           : AC-3
Format/Info                      : Audio Coding 3
Mode extension                   : CM (complete main)
Codec ID                         : A_AC3
Duration                         : 1h 34mn
Bit rate mode                    : Constant
Bit rate                         : 640 Kbps
Channel(s)                       : 6 channels
Channel positions                : Front: L C R, Side: L R, LFE
Sampling rate                    : 48.0 KHz
Bit depth                        : 16 bits
Stream size                      : 431 MiB (10%)
Title                            : Italiano AC3 5.1 640 kbps - Pitt@Sk8
Language                         : Italian

Audio #2
ID                               : 3
Format                           : DTS
Format/Info                      : Digital Theater Systems
Codec ID                         : A_DTS
Duration                         : 1h 34mn
Bit rate mode                    : Constant
Bit rate                         : 755 Kbps
Channel(s)                       : 6 channels
Channel positions                : Front: L C R, Side: L R, LFE
Sampling rate                    : 48.0 KHz
Bit depth                        : 24 bits
Stream size                      : 508 MiB (11%)
Title                            : Italiano DTS 5.1 755 kbps - Pitt@Sk8
Language                         : Italian

Audio #3
ID                               : 4
Format                           : AC-3
Format/Info                      : Audio Coding 3
Mode extension                   : CM (complete main)
Codec ID                         : A_AC3
Duration                         : 1h 34mn
Bit rate mode                    : Constant
Bit rate                         : 640 Kbps
Channel(s)                       : 6 channels
Channel positions                : Front: L C R, Side: L R, LFE
Sampling rate                    : 48.0 KHz
Bit depth                        : 16 bits
Stream size                      : 431 MiB (10%)
Title                            : English AC3 5.1 640 kbps - Pitt@Sk8
Language                         : English

Text #1
ID                               : 5
Format                           : UTF-8
Codec ID                         : S_TEXT/UTF8
Codec ID/Info                    : UTF-8 Plain Text
Title                            : Vuoto - Pitt@Sk8
Language                         : Italian

Text #2
ID                               : 6
Format                           : VobSub
Codec ID                         : S_VOBSUB
Codec ID/Info                    : The same subtitle format used on DVDs
Title                            : Sottotitoli - Italiano per non udenti
Language                         : Italian

Menu
00:00:00.000                     : en:Capitolo 01 - Pitt@Sk8
00:04:51.082                     : en:Capitolo 02 - Pitt@Sk8
00:06:50.452                     : en:Capitolo 03 - Pitt@Sk8
00:11:55.757                     : en:Capitolo 04 - Pitt@Sk8
00:15:50.700                     : en:Capitolo 05 - Pitt@Sk8
00:23:00.921                     : en:Capitolo 06 - Pitt@Sk8
00:26:50.108                     : en:Capitolo 07 - Pitt@Sk8
00:33:50.904                     : en:Capitolo 08 - Pitt@Sk8
00:38:53.206                     : en:Capitolo 09 - Pitt@Sk8
00:42:58.618                     : en:Capitolo 10 - Pitt@Sk8
00:45:51.958                     : en:Capitolo 11 - Pitt@Sk8
00:50:00.748                     : en:Capitolo 12 - Pitt@Sk8
00:53:09.144                     : en:Capitolo 13 - Pitt@Sk8
00:57:03.253                     : en:Capitolo 14 - Pitt@Sk8
01:01:27.392                     : en:Capitolo 15 - Pitt@Sk8
01:04:55.016                     : en:Capitolo 16 - Pitt@Sk8
01:07:35.051                     : en:Capitolo 17 - Pitt@Sk8
01:13:28.154                     : en:Capitolo 18 - Pitt@Sk8
01:19:15.751                     : en:Capitolo 19 - Pitt@Sk8
01:22:37.494                     : en:Capitolo 20 - Pitt@Sk8
01:26:49.538                     : en:Capitolo 21 - Pitt@Sk8


[img]http://img98.imageshack.us/img98/4923/uomochefissalecaprethem.jpg[/img]

[img]http://img339.imageshack.us/img339/4923/uomochefissalecaprethem.jpg[/img]

[img]http://img268.imageshack.us/img268/4923/uomochefissalecaprethem.jpg[/img]

[img]http://img502.imageshack.us/img502/4923/uomochefissalecaprethem.jpg[/img]

[img]http://img843.imageshack.us/img843/4923/uomochefissalecaprethem.jpg[/img]

[img]http://img228.imageshack.us/img228/4923/uomochefissalecaprethem.jpg[/img]

Join www.nautilus-bt.org
